<svg width="40" height="40" viewBox="0 0 40 40" fill="none" xmlns="http://www.w3.org/2000/svg">
<g clip-path="url(#clip0_44_411)">
<path d="M33.4643 0.000137579C33.2124 -0.00372365 32.9784 0.130178 32.854 0.349441L31.7437 2.24337C31.4114 2.13581 31.0575 2.0772 30.6906 2.0772C28.7947 2.0772 27.243 3.62887 27.243 5.52473C27.243 6.5161 27.6679 7.41287 28.3438 8.04336L23.8663 15.681C23.2208 15.3597 22.4944 15.1779 21.7269 15.1779C19.3284 15.1779 17.3284 16.9451 16.9611 19.2433L12.0697 18.4707C11.988 16.6459 10.4701 15.1778 8.62613 15.1778C6.73027 15.1778 5.1786 16.7295 5.1786 18.6253C5.1786 19.4719 5.48874 20.2493 6.00008 20.8512L0.499344 27.8524C0.259397 28.1482 0.304628 28.5825 0.600426 28.8224C0.896224 29.0624 1.33047 29.0171 1.57042 28.7213C1.57497 28.7158 1.57939 28.7102 1.5838 28.7044L7.08315 21.7051C7.54816 21.9399 8.07232 22.073 8.62613 22.073C10.0977 22.073 11.3614 21.1379 11.8536 19.8329L16.9429 20.6363C17.2545 22.9971 19.2834 24.831 21.7266 24.831C24.3841 24.831 26.5531 22.662 26.5531 20.0045C26.5531 18.6099 25.9552 17.3504 25.0034 16.4679L29.5183 8.76582C29.8845 8.89931 30.2792 8.9724 30.6902 8.9724C32.586 8.9724 34.1377 7.42073 34.1377 5.52487C34.1377 4.48868 33.6734 3.55619 32.9435 2.92281L34.0436 1.04667C34.2408 0.720947 34.1367 0.296901 33.8109 0.0997022C33.7062 0.0362677 33.5866 0.00193029 33.4643 0.000137579ZM30.6906 3.45621C31.0175 3.45621 31.3244 3.53247 31.598 3.665C31.6581 3.71271 31.7257 3.75022 31.7981 3.77573C32.3768 4.14062 32.7591 4.78351 32.7591 5.52487C32.7591 6.67538 31.8411 7.59338 30.6906 7.59338C30.3359 7.59338 30.0036 7.50568 29.7131 7.35123C29.6507 7.29455 29.5784 7.24987 29.4998 7.21926C28.9679 6.84665 28.6221 6.23009 28.6221 5.52487C28.6221 4.37422 29.5401 3.45621 30.6906 3.45621ZM30.6906 3.80097C29.7426 3.80097 28.9668 4.5768 28.9668 5.52473C28.9641 5.71517 29.1163 5.87169 29.3067 5.87431C29.4972 5.87707 29.6537 5.72482 29.6563 5.53438C29.6563 5.53107 29.6563 5.5279 29.6563 5.52459C29.6563 4.94927 30.1153 4.49033 30.6906 4.49033C30.881 4.49309 31.0375 4.34085 31.0402 4.15041C31.0428 3.95997 30.8907 3.80345 30.7002 3.80083C30.6972 3.80097 30.6939 3.80097 30.6906 3.80097ZM28.7415 15.4165C28.3607 15.4256 28.0594 15.7415 28.0685 16.1223C28.0729 16.3083 28.1524 16.4847 28.2888 16.6113C30.9438 19.1458 31.6731 23.0899 30.1004 26.4063C28.5276 29.7226 25.0124 31.6535 21.3697 31.2015C17.7272 30.7496 14.79 28.0182 14.0754 24.418C14.0076 24.0433 13.6486 23.7946 13.2739 23.8624C12.8993 23.9302 12.6505 24.2892 12.7183 24.6639C12.7197 24.6713 12.7212 24.6788 12.7228 24.6862C13.5521 28.8646 16.9722 32.0455 21.1997 32.57C23.3842 32.841 25.5322 32.3702 27.3508 31.3222L34.7694 39.7657C35.0209 40.0517 35.4566 40.0797 35.7426 39.8283C35.7536 39.8185 35.7644 39.8085 35.7749 39.7981L39.4524 36.1208C39.7216 35.8515 39.7214 35.4149 39.4521 35.1456C39.4447 35.1383 39.4372 35.131 39.4295 35.124L31.084 27.5071C31.1754 27.3401 31.264 27.1709 31.3463 26.9973C33.1717 23.1482 32.3219 18.5553 29.2405 15.6137C29.1077 15.4831 28.9277 15.412 28.7415 15.4165ZM8.62641 16.5568C9.77705 16.5568 10.6949 17.4748 10.6949 18.6253C10.6949 19.7758 9.77691 20.6939 8.62641 20.6939C8.18719 20.6939 7.78245 20.5591 7.44914 20.3297C7.44887 20.3295 7.44887 20.3292 7.44859 20.3291C7.39371 20.2669 7.32793 20.2152 7.2547 20.1764C6.82707 19.7987 6.55789 19.2467 6.55789 18.6253C6.55789 17.4748 7.4759 16.5568 8.62641 16.5568ZM21.727 16.5568C22.4208 16.5568 23.0645 16.7598 23.6037 17.1087C23.6674 17.1764 23.7442 17.2306 23.8294 17.2678C24.6484 17.8967 25.1745 18.8857 25.1745 20.0043C25.1745 21.9165 23.6391 23.4519 21.727 23.4519C19.8651 23.4519 18.3611 21.9959 18.2832 20.1541C18.2958 20.0772 18.2953 19.9986 18.2816 19.9216C18.3254 18.0482 19.8426 16.5568 21.727 16.5568ZM8.62641 16.9016C7.67847 16.9016 6.90264 17.6774 6.90264 18.6253C6.89988 18.8158 7.05213 18.9723 7.24257 18.9749C7.43301 18.9775 7.58953 18.8254 7.59215 18.635C7.59215 18.6317 7.59215 18.6285 7.59215 18.6252C7.59215 18.0499 8.05108 17.5909 8.62641 17.5909C8.81685 17.5937 8.97336 17.4415 8.97598 17.251C8.97874 17.0606 8.8265 16.9041 8.63606 16.9014C8.63303 16.9016 8.62972 16.9016 8.62641 16.9016ZM21.727 17.5911C20.3983 17.5911 19.3137 18.6757 19.3137 20.0043C19.311 20.1948 19.4632 20.3513 19.6537 20.3539C19.8441 20.3567 20.0006 20.2044 20.0032 20.014C20.0032 20.0107 20.0032 20.0075 20.0032 20.0042C20.0032 19.0481 20.7709 18.2804 21.727 18.2804C21.9174 18.2832 22.074 18.131 22.0766 17.9405C22.0793 17.7501 21.9271 17.5936 21.7367 17.5909C21.7336 17.5911 21.7303 17.5911 21.727 17.5911ZM29.3423 22.4128C29.1522 22.4158 29.0003 22.5722 29.0029 22.7624C29.0029 26.4039 26.0581 29.3488 22.4165 29.3488C22.2261 29.346 22.0696 29.4983 22.0669 29.6887C22.0642 29.8792 22.2164 30.0357 22.4069 30.0383C22.4102 30.0383 22.4133 30.0383 22.4167 30.0383C26.4308 30.0383 29.6926 26.7767 29.6926 22.7624C29.6952 22.5719 29.5431 22.4154 29.3527 22.4128C29.3492 22.4128 29.3458 22.4128 29.3423 22.4128ZM30.3289 28.6848L36.3629 34.1917L33.8001 36.5733L28.5039 30.5458C29.1855 30.0131 29.8013 29.3898 30.3289 28.6848ZM36.8738 34.6583L37.9671 35.6558L35.3201 38.3029L34.2556 37.0914L36.8738 34.6583Z" fill="#FFCC66"/>
</g>
<defs>
<clipPath id="clip0_44_411">
<rect width="40" height="40" fill="white"/>
</clipPath>
</defs>
</svg>
