<svg width="40" height="40" viewBox="0 0 40 40" fill="none" xmlns="http://www.w3.org/2000/svg">
<g clip-path="url(#clip0_44_401)">
<path opacity="0.15" fill-rule="evenodd" clip-rule="evenodd" d="M38.7026 18.8705C38.4936 18.7836 38.2531 18.8316 38.0931 18.992L36.4185 20.6721V9.24915C36.4185 8.93931 36.1682 8.6882 35.8593 8.6882H31.5631L33.1227 7.12367L33.1233 7.12291L34.626 5.6154C34.948 5.29242 35.1253 4.86277 35.1253 4.40594C35.1253 3.94912 34.948 3.51962 34.626 3.19649L32.8884 1.45325C32.5665 1.13026 32.1382 0.952381 31.6828 0.952381C31.2274 0.952381 30.7992 1.13026 30.4772 1.45325L28.9738 2.9615L27.1571 4.78402L23.2655 8.68813H5.90923V3.1387C5.90923 2.82886 5.65886 2.57776 5.35008 2.57776C2.92522 2.57791 0.952377 4.55695 0.952377 6.98975V30.8151C0.952377 30.8566 0.957139 30.8969 0.965625 30.9357C1.04285 31.968 1.48802 32.927 2.232 33.6551C3.02723 34.4332 4.07702 34.8617 5.18803 34.8617H22.2742L19.0563 38.0901C18.8964 38.2505 18.8486 38.4916 18.935 38.7013C19.0216 38.911 19.2255 39.0476 19.4517 39.0476H38.4886C38.7973 39.0476 39.0477 38.7966 39.0477 38.4867V19.3888C39.0477 19.1619 38.9114 18.9573 38.7026 18.8705ZM31.2681 2.24664C31.4967 2.01718 31.8691 2.01718 32.0977 2.24664L33.8354 3.98995C34.0641 4.21933 34.0641 4.59278 33.8354 4.82224L32.7274 5.93384L30.16 3.35824L31.2681 2.24664ZM29.3692 4.15155L31.9366 6.72708L30.9107 7.75635L28.3434 5.18083L29.3692 4.15155ZM17.5207 20.7238L15.919 21.291L14.8519 20.2205L15.4173 18.6137L17.5207 20.7238ZM34.1231 28.734L28.734 34.1231C28.674 34.1831 28.7165 34.2857 28.8013 34.2857H34.2857V28.8013C34.2857 28.7165 34.1831 28.674 34.1231 28.734ZM15.2381 17.619L18.5714 20.9524L30.9524 8.57143L27.619 5.2381L15.2381 17.619Z" fill="#FFCC66"/>
<path d="M34.6665 27.8618C34.4575 27.775 34.217 27.823 34.0571 27.9833L27.9466 34.1136C27.7867 34.2741 27.7388 34.5153 27.8254 34.725C27.9119 34.9347 28.1159 35.0712 28.342 35.0712H34.4526C34.7614 35.0712 35.0117 34.8201 35.0117 34.5103V28.38C35.0116 28.1532 34.8754 27.9487 34.6665 27.8618ZM29.6917 33.9494L33.8932 29.7343V33.9494H29.6917Z" fill="#FFCC66" stroke="#FFCC66" stroke-width="0.25"/>
<path d="M38.7026 18.8705C38.4936 18.7836 38.2531 18.8316 38.0931 18.992L36.4185 20.6721V9.24915C36.4185 8.93931 36.1682 8.6882 35.8593 8.6882H31.5631L33.1227 7.12367C33.1229 7.12345 33.1231 7.12313 33.1233 7.12291L34.626 5.6154C34.948 5.29242 35.1253 4.86277 35.1253 4.40594C35.1253 3.94912 34.948 3.51962 34.626 3.19649L32.8884 1.45325C32.5665 1.13026 32.1382 0.952381 31.6828 0.952381C31.2274 0.952381 30.7992 1.13026 30.4772 1.45325L28.9738 2.9615L27.1571 4.78402L23.2655 8.68813H5.90923V3.1387C5.90923 2.82886 5.65886 2.57776 5.35008 2.57776C2.92522 2.57791 0.952377 4.55695 0.952377 6.98975V30.8151C0.952377 30.8566 0.957139 30.8969 0.965625 30.9357C1.04285 31.968 1.48802 32.927 2.232 33.6551C3.02723 34.4332 4.07702 34.8617 5.18803 34.8617H22.2742L19.0563 38.0901C18.8964 38.2505 18.8486 38.4916 18.935 38.7013C19.0216 38.911 19.2255 39.0476 19.4517 39.0476H38.4886C38.7973 39.0476 39.0477 38.7966 39.0477 38.4867V19.3888C39.0477 19.1619 38.9114 18.9573 38.7026 18.8705ZM31.2681 2.24664C31.4967 2.01718 31.8691 2.01718 32.0977 2.24664L33.8354 3.98995C34.0641 4.21933 34.0641 4.59278 33.8354 4.82224L32.7274 5.93384L30.16 3.35824L31.2681 2.24664ZM29.3692 4.15155L31.9366 6.72708L30.9107 7.75635L28.3434 5.18083L29.3692 4.15155ZM37.9295 25.6918H36.8979C36.589 25.6918 36.3388 25.943 36.3388 26.2528C36.3388 26.5627 36.589 26.8137 36.8979 26.8137H37.9295V28.5041H36.8979C36.589 28.5041 36.3388 28.7553 36.3388 29.0651C36.3388 29.375 36.589 29.6261 36.8979 29.6261H37.9295V31.3164H36.8979C36.589 31.3164 36.3388 31.5674 36.3388 31.8773C36.3388 32.1871 36.589 32.4383 36.8979 32.4383H37.9295V34.1287H36.8979C36.589 34.1287 36.3388 34.3798 36.3388 34.6896C36.3388 34.9995 36.589 35.2506 36.8979 35.2506H37.9295V37.9259H20.8015L26.4494 32.26C26.6678 32.0408 26.6678 31.6857 26.4494 31.4667C26.4244 31.4414 26.3974 31.4196 26.3692 31.4003C26.1515 31.2508 25.852 31.2727 25.6586 31.4667L23.3926 33.74H5.1881C3.49226 33.74 2.12708 32.4118 2.07336 30.7136C2.07656 30.607 2.08482 30.5012 2.09806 30.3968C2.09814 30.3962 2.09822 30.3956 2.09829 30.395C2.10454 30.3453 2.11205 30.2959 2.12061 30.2469C2.12158 30.2412 2.12262 30.2355 2.12359 30.23C2.1314 30.1862 2.14018 30.1426 2.14978 30.0991C2.15245 30.087 2.15528 30.075 2.15811 30.063C2.16659 30.0262 2.17574 29.9897 2.18557 29.9533C2.19092 29.9336 2.1965 29.9142 2.20223 29.8946C2.21042 29.866 2.2189 29.8376 2.2279 29.8094C2.2369 29.7813 2.2465 29.7534 2.25625 29.7256C2.26302 29.7062 2.26972 29.6867 2.27701 29.6673C2.29063 29.6306 2.30506 29.5943 2.31994 29.5582C2.32418 29.5478 2.32835 29.5373 2.33274 29.527C2.35186 29.4821 2.37173 29.4379 2.39271 29.3941C2.3936 29.3923 2.39442 29.3904 2.39531 29.3886C2.83266 28.4806 3.67382 27.8036 4.68326 27.5935C4.68609 27.593 4.68892 27.5923 4.69175 27.5916C4.73803 27.5822 4.78475 27.5741 4.83178 27.5666C4.83959 27.5653 4.8474 27.5636 4.85536 27.5625C4.89784 27.556 4.94078 27.551 4.98371 27.5461C4.99577 27.5448 5.00774 27.5429 5.01987 27.5417C5.06131 27.5375 5.10313 27.5348 5.14495 27.5321C5.15819 27.5312 5.17143 27.5299 5.18468 27.5292C5.23944 27.5265 5.29464 27.525 5.35008 27.525C5.65886 27.525 5.90923 27.274 5.90923 26.9641V22.8968C5.90923 22.587 5.65886 22.3359 5.35008 22.3359C5.0413 22.3359 4.79093 22.587 4.79093 22.8968V26.4385C3.84673 26.5583 2.97031 26.9808 2.27924 27.6578C2.20655 27.729 2.13764 27.803 2.07053 27.8783V6.98975C2.07053 5.36691 3.24806 4.01458 4.79085 3.7475V20.6531C4.79085 20.9629 5.04122 21.2141 5.35001 21.2141C5.65879 21.2141 5.90916 20.9629 5.90916 20.6531V9.8101H22.1473L19.0562 12.9111C18.8378 13.1303 18.8378 13.4854 19.0562 13.7045C19.2746 13.9234 19.6286 13.9234 19.8469 13.7045L23.8926 9.64581C23.8925 9.64591 23.8927 9.64571 23.8926 9.64581L27.5525 5.97408L30.1197 8.54967L29.8185 8.85182C29.8183 8.85205 29.818 8.85227 29.8178 8.8525L18.5433 20.1633L15.9761 17.5878L18.1984 15.3584C18.4168 15.1391 18.4168 14.7841 18.1984 14.565C17.98 14.3461 17.626 14.3461 17.4077 14.565L14.7899 17.1911C14.7759 17.2052 14.7629 17.22 14.7506 17.2352C14.7465 17.2404 14.7429 17.2458 14.7389 17.251C14.731 17.2616 14.7233 17.2722 14.7161 17.2832C14.712 17.2897 14.7083 17.2963 14.7044 17.3029C14.6983 17.3133 14.6923 17.324 14.6869 17.3348C14.6833 17.3417 14.6801 17.349 14.6769 17.3562C14.6718 17.3671 14.6672 17.3784 14.6629 17.3895C14.6615 17.3935 14.6595 17.3972 14.6581 17.4011L13.5688 20.4971L12.8261 22.608C12.8163 22.636 12.8091 22.6646 12.8039 22.6933H10.9444C10.6356 22.6933 10.3852 22.9444 10.3852 23.2542C10.3852 23.5641 10.6356 23.8151 10.9444 23.8151H26.429C26.7379 23.8151 26.9882 23.5641 26.9882 23.2542C26.9882 22.9444 26.7379 22.6933 26.429 22.6933H15.3194L18.7294 21.4856C18.7323 21.4847 18.7349 21.4832 18.7377 21.4822C18.751 21.4772 18.764 21.4716 18.7769 21.4658C18.782 21.4634 18.7871 21.4611 18.7922 21.4587C18.8055 21.452 18.8187 21.4446 18.8316 21.4367C18.8358 21.4341 18.8401 21.4318 18.8442 21.4292C18.8577 21.4206 18.8708 21.411 18.8837 21.401C18.8869 21.3987 18.8902 21.3965 18.8933 21.3939C18.9089 21.3813 18.9241 21.3679 18.9386 21.3533L30.4449 9.81019H35.3002V21.794L27.3019 29.818C27.0835 30.0372 27.0835 30.3923 27.3019 30.6113C27.3155 30.625 27.3297 30.6379 27.3444 30.6498C27.4469 30.7337 27.5722 30.7757 27.6973 30.7757C27.8225 30.7757 27.9477 30.7337 28.0502 30.6498C28.0649 30.6379 28.079 30.625 28.0927 30.6113L37.9295 20.7428V25.6918ZM17.5207 20.7238L15.919 21.291L14.8519 20.2205L15.4173 18.6137L17.5207 20.7238Z" fill="#FFCC66"/>
<path d="M23.8926 9.64581L19.8469 13.7045C19.6286 13.9234 19.2746 13.9234 19.0562 13.7045C18.8378 13.4854 18.8378 13.1303 19.0562 12.9111L22.1473 9.8101H5.90916V20.6531C5.90916 20.9629 5.65879 21.2141 5.35001 21.2141C5.04122 21.2141 4.79085 20.9629 4.79085 20.6531V3.7475C3.24806 4.01458 2.07053 5.36691 2.07053 6.98975V27.8783C2.13764 27.803 2.20655 27.729 2.27924 27.6578C2.97031 26.9808 3.84673 26.5583 4.79093 26.4385V22.8968C4.79093 22.587 5.0413 22.3359 5.35008 22.3359C5.65886 22.3359 5.90923 22.587 5.90923 22.8968V26.9641C5.90923 27.274 5.65886 27.525 5.35008 27.525C5.29464 27.525 5.23944 27.5265 5.18468 27.5292C5.17143 27.5299 5.15819 27.5312 5.14495 27.5321C5.10313 27.5348 5.06131 27.5375 5.01987 27.5417C5.00774 27.5429 4.99577 27.5448 4.98371 27.5461C4.94078 27.551 4.89784 27.556 4.85536 27.5625C4.8474 27.5636 4.83959 27.5653 4.83178 27.5666C4.78475 27.5741 4.73803 27.5822 4.69175 27.5916C4.68892 27.5923 4.68609 27.593 4.68326 27.5935C3.67382 27.8036 2.83266 28.4806 2.39531 29.3886C2.39442 29.3904 2.3936 29.3923 2.39271 29.3941C2.37173 29.4379 2.35186 29.4821 2.33274 29.527C2.32835 29.5373 2.32418 29.5478 2.31994 29.5582C2.30506 29.5943 2.29063 29.6306 2.27701 29.6673C2.26972 29.6867 2.26302 29.7062 2.25625 29.7256C2.2465 29.7534 2.2369 29.7813 2.2279 29.8094C2.2189 29.8376 2.21042 29.866 2.20223 29.8946C2.1965 29.9142 2.19092 29.9336 2.18557 29.9533C2.17574 29.9897 2.16659 30.0262 2.15811 30.063C2.15528 30.075 2.15245 30.087 2.14978 30.0991C2.14018 30.1426 2.1314 30.1862 2.12359 30.23C2.12262 30.2355 2.12158 30.2412 2.12061 30.2469C2.11205 30.2959 2.10454 30.3453 2.09829 30.395C2.09822 30.3956 2.09814 30.3962 2.09806 30.3968C2.08482 30.5012 2.07656 30.607 2.07336 30.7136C2.12708 32.4118 3.49226 33.74 5.1881 33.74H23.3926L25.6586 31.4667C25.852 31.2727 26.1515 31.2508 26.3692 31.4003C26.3974 31.4196 26.4244 31.4414 26.4494 31.4667C26.6678 31.6857 26.6678 32.0408 26.4494 32.26L20.8015 37.9259H37.9295V35.2506H36.8979C36.589 35.2506 36.3388 34.9995 36.3388 34.6896C36.3388 34.3798 36.589 34.1287 36.8979 34.1287H37.9295V32.4383H36.8979C36.589 32.4383 36.3388 32.1871 36.3388 31.8773C36.3388 31.5674 36.589 31.3164 36.8979 31.3164H37.9295V29.6261H36.8979C36.589 29.6261 36.3388 29.375 36.3388 29.0651C36.3388 28.7553 36.589 28.5041 36.8979 28.5041H37.9295V26.8137H36.8979C36.589 26.8137 36.3388 26.5627 36.3388 26.2528C36.3388 25.943 36.589 25.6918 36.8979 25.6918H37.9295V20.7428L28.0927 30.6113C28.079 30.625 28.0649 30.6379 28.0502 30.6498C27.9477 30.7337 27.8225 30.7757 27.6973 30.7757C27.5722 30.7757 27.4469 30.7337 27.3444 30.6498C27.3297 30.6379 27.3155 30.625 27.3019 30.6113C27.0835 30.3923 27.0835 30.0372 27.3019 29.818L35.3002 21.794V9.81019H30.4449L18.9386 21.3533C18.9241 21.3679 18.9089 21.3813 18.8933 21.3939C18.8902 21.3965 18.8869 21.3987 18.8837 21.401C18.8708 21.411 18.8577 21.4206 18.8442 21.4292C18.8401 21.4318 18.8358 21.4341 18.8316 21.4367C18.8187 21.4446 18.8055 21.452 18.7922 21.4587C18.7871 21.4611 18.782 21.4634 18.7769 21.4658C18.764 21.4716 18.751 21.4772 18.7377 21.4822C18.7349 21.4832 18.7323 21.4847 18.7294 21.4856L15.3194 22.6933H26.429C26.7379 22.6933 26.9882 22.9444 26.9882 23.2542C26.9882 23.5641 26.7379 23.8151 26.429 23.8151H10.9444C10.6356 23.8151 10.3852 23.5641 10.3852 23.2542C10.3852 22.9444 10.6356 22.6933 10.9444 22.6933H12.8039C12.8091 22.6646 12.8163 22.636 12.8261 22.608L13.5688 20.4971L14.6581 17.4011C14.6595 17.3972 14.6615 17.3935 14.6629 17.3895C14.6672 17.3784 14.6718 17.3671 14.6769 17.3562C14.6801 17.349 14.6833 17.3417 14.6869 17.3348C14.6923 17.324 14.6983 17.3133 14.7044 17.3029C14.7083 17.2963 14.712 17.2897 14.7161 17.2832C14.7233 17.2722 14.731 17.2616 14.7389 17.251C14.7429 17.2458 14.7465 17.2404 14.7506 17.2352C14.7629 17.22 14.7759 17.2052 14.7899 17.1911L17.4077 14.565C17.626 14.3461 17.98 14.3461 18.1984 14.565C18.4168 14.7841 18.4168 15.1391 18.1984 15.3584L15.9761 17.5878L18.5433 20.1633L29.8178 8.8525C29.818 8.85227 29.8183 8.85205 29.8185 8.85182L30.1197 8.54967L27.5525 5.97408L23.8926 9.64581ZM23.8926 9.64581C23.8927 9.64571 23.8925 9.64591 23.8926 9.64581ZM38.7026 18.8705C38.4936 18.7836 38.2531 18.8316 38.0931 18.992L36.4185 20.6721V9.24915C36.4185 8.93931 36.1682 8.6882 35.8593 8.6882H31.5631L33.1227 7.12367C33.1229 7.12345 33.1231 7.12313 33.1233 7.12291L34.626 5.6154C34.948 5.29242 35.1253 4.86277 35.1253 4.40594C35.1253 3.94912 34.948 3.51962 34.626 3.19649L32.8884 1.45325C32.5665 1.13026 32.1382 0.952381 31.6828 0.952381C31.2274 0.952381 30.7992 1.13026 30.4772 1.45325L28.9738 2.9615L27.1571 4.78402L23.2655 8.68813H5.90923V3.1387C5.90923 2.82886 5.65886 2.57776 5.35008 2.57776C2.92522 2.57791 0.952377 4.55695 0.952377 6.98975V30.8151C0.952377 30.8566 0.957139 30.8969 0.965625 30.9357C1.04285 31.968 1.48802 32.927 2.232 33.6551C3.02723 34.4332 4.07702 34.8617 5.18803 34.8617H22.2742L19.0563 38.0901C18.8964 38.2505 18.8486 38.4916 18.935 38.7013C19.0216 38.911 19.2255 39.0476 19.4517 39.0476H38.4886C38.7973 39.0476 39.0477 38.7966 39.0477 38.4867V19.3888C39.0477 19.1619 38.9114 18.9573 38.7026 18.8705ZM31.2681 2.24664C31.4967 2.01718 31.8691 2.01718 32.0977 2.24664L33.8354 3.98995C34.0641 4.21933 34.0641 4.59278 33.8354 4.82224L32.7274 5.93384L30.16 3.35824L31.2681 2.24664ZM29.3692 4.15155L31.9366 6.72708L30.9107 7.75635L28.3434 5.18083L29.3692 4.15155ZM17.5207 20.7238L15.919 21.291L14.8519 20.2205L15.4173 18.6137L17.5207 20.7238Z" stroke="#FFCC66" stroke-width="0.25"/>
</g>
<defs>
<clipPath id="clip0_44_401">
<rect width="40" height="40" fill="white"/>
</clipPath>
</defs>
</svg>
