<svg width="40" height="31" viewBox="0 0 40 31" fill="none" xmlns="http://www.w3.org/2000/svg">
<path opacity="0.15" fill-rule="evenodd" clip-rule="evenodd" d="M1.42856 6.56976C1.42856 5.5178 2.28135 4.665 3.33332 4.665H36.4762C37.5282 4.665 38.3809 5.5178 38.3809 6.56976V26.5591C38.3809 27.6111 37.5282 28.4639 36.4762 28.4639H23.0579C27.085 27.1725 30 23.3987 30 18.9444C30 13.424 25.5228 8.94881 20 8.94881C14.4771 8.94881 9.99999 13.424 9.99999 18.9444C9.99999 23.3987 12.9149 27.1725 16.9421 28.4639H3.33332C2.28135 28.4639 1.42856 27.6111 1.42856 26.5591V6.56976ZM20 23.7042C22.6299 23.7042 24.7619 21.5731 24.7619 18.9444C24.7619 16.3156 22.6299 14.1846 20 14.1846C17.3701 14.1846 15.2381 16.3156 15.2381 18.9444C15.2381 21.5731 17.3701 23.7042 20 23.7042Z" fill="#FFCC66"/>
<path d="M1.94942 20.5386C1.94942 20.7809 1.75277 20.9774 1.51043 20.9774C1.2681 20.9774 1.07144 20.7809 1.07144 20.5386V18.2825C1.07144 18.04 1.26806 17.8437 1.51043 17.8437C1.7528 17.8437 1.94942 18.04 1.94942 18.2825V20.5386Z" fill="#FFCC66" stroke="#FFCC66" stroke-width="0.25"/>
<path d="M36.8998 4.49877H34.5884V4.23556C34.5884 3.4901 33.9815 2.88322 33.2354 2.88322H32.9985V2.20951C32.9985 1.46376 32.3913 0.857165 31.6455 0.857165H28.9795C28.2337 0.857165 27.6266 1.46376 27.6266 2.20951V2.88322H27.3896C26.6436 2.88322 26.0368 3.48981 26.0368 4.23556V4.49877H18.0937V3.91774C18.0937 3.17229 17.4869 2.56539 16.7408 2.56539H15.6648C14.919 2.56539 14.3118 3.17199 14.3118 3.91774V4.49877H13.0063V3.12318C13.0063 2.37772 12.3994 1.77084 11.6533 1.77084H5.8079C5.0621 1.77084 4.45494 2.37772 4.45494 3.12318V4.49877H3.10025C1.91588 4.49877 0.952393 5.46212 0.952393 6.64569V15.8533C0.952393 16.1615 1.20234 16.411 1.51043 16.411C1.81852 16.411 2.06847 16.1615 2.06847 15.8533V10.556H5.12255C5.36815 11.4549 6.19213 12.1178 7.16811 12.1178C8.14438 12.1178 8.96807 11.4549 9.21366 10.556H13.6454C11.0712 12.4903 9.40316 15.5674 9.40316 19.0269C9.40316 21.2981 10.1222 23.4043 11.3444 25.1309H2.06847V22.9677C2.06847 22.6595 1.81852 22.4099 1.51043 22.4099C1.20234 22.4099 0.952393 22.6595 0.952393 22.9677V26.4568C0.952393 27.6406 1.91588 28.6037 3.10025 28.6037H15.4753C16.8483 29.2545 18.3823 29.619 20 29.619C21.6184 29.619 23.1527 29.2542 24.5259 28.6029C24.5303 28.6031 24.5344 28.6037 24.5388 28.6037H36.8998C38.0842 28.6037 39.0477 27.6406 39.0477 26.4568V6.64569C39.0477 5.46212 38.0842 4.49877 36.8998 4.49877ZM28.7426 2.20951C28.7426 2.07908 28.849 1.97274 28.9798 1.97274H31.6455C31.7761 1.97274 31.8825 2.07878 31.8825 2.20951V2.88322H28.743L28.7426 2.20951ZM27.1528 4.23556C27.1528 4.10512 27.2592 3.99879 27.39 3.99879H33.2354C33.3659 3.99879 33.4723 4.10512 33.4723 4.23556V4.49877H27.1531L27.1528 4.23556ZM15.4279 3.91774C15.4279 3.7873 15.5343 3.68097 15.6648 3.68097H16.7408C16.8715 3.68097 16.9776 3.7873 16.9776 3.91774V4.49877H15.4279V3.91774ZM5.57102 3.12318C5.57102 2.99274 5.67739 2.88641 5.8079 2.88641H11.6536C11.7841 2.88641 11.8905 2.99274 11.8905 3.12318V4.49877H5.57102V3.12318ZM7.16811 11.0022C6.61443 11.0022 6.16364 10.5519 6.16364 9.99829C6.16364 9.44479 6.61443 8.9942 7.16811 8.9942C7.72208 8.9942 8.17257 9.44479 8.17257 9.99829C8.17257 10.5519 7.72208 11.0022 7.16811 11.0022ZM9.21366 9.44044C8.96807 8.54158 8.14438 7.87863 7.16811 7.87863C6.19183 7.87863 5.36815 8.54158 5.12255 9.44044H2.06847V6.64569C2.06847 6.07714 2.53146 5.61435 3.10025 5.61435H36.8998C37.4687 5.61435 37.9316 6.07714 37.9316 6.64569V9.44044H36.2709V7.4138C36.2709 7.10586 36.021 6.85602 35.7129 6.85602H30.5193C30.2112 6.85602 29.9613 7.10586 29.9613 7.4138V9.44044H24.5015C23.1073 8.7862 21.5724 8.43496 20 8.43496C18.3905 8.43496 16.864 8.79607 15.4965 9.44044H9.21366ZM31.0773 9.44044V7.97159H35.1548V9.44044H31.0773ZM3.10025 27.4881C2.53146 27.4881 2.06847 27.0253 2.06847 26.4568V26.2465H12.2538C12.6761 26.699 13.1373 27.1148 13.6323 27.4881H3.10025ZM10.5193 19.0271C10.5193 13.8016 14.7725 9.55057 20 9.55057C22.7114 9.55057 25.2988 10.7154 27.0991 12.7465C27.3033 12.9771 27.6559 12.9987 27.8867 12.7942C28.1174 12.5899 28.1387 12.2375 27.9344 12.0068C27.4556 11.4668 26.9267 10.9822 26.3582 10.556H37.9316V25.1309H28.6557C29.5079 23.927 30.1148 22.5383 30.4045 21.0378H31.8644C32.6875 21.0378 33.3574 20.3684 33.3574 19.5454V18.1559C33.3574 17.3329 32.6878 16.6635 31.8644 16.6635H30.3284C30.1255 15.776 29.8105 14.9152 29.3875 14.1105C29.2443 13.8377 28.9069 13.7325 28.6342 13.8761C28.3613 14.0192 28.2561 14.3562 28.3993 14.629C29.1068 15.9759 29.4809 17.4968 29.4809 19.0271C29.4809 24.2526 25.2278 28.5037 20 28.5037C14.7725 28.5037 10.5193 24.2523 10.5193 19.0271ZM30.5222 17.7789H31.8644C32.0722 17.7789 32.2414 17.9479 32.2414 18.1556V19.5454C32.2414 19.7531 32.0722 19.9223 31.8644 19.9223H30.5586C30.5835 19.627 30.597 19.3284 30.597 19.0269C30.597 18.6094 30.5716 18.1926 30.5222 17.7789ZM36.8998 27.4881H26.3677C26.8628 27.1148 27.324 26.699 27.7463 26.2465H37.9316V26.4568C37.9316 27.0253 37.4687 27.4881 36.8998 27.4881Z" fill="#FFCC66" stroke="#FFCC66" stroke-width="0.25"/>
<path d="M12.611 19.0271C12.611 14.9545 15.9256 11.641 20.0001 11.641C24.0746 11.641 27.3892 14.9545 27.3892 19.0271C27.3892 23.0995 24.0746 26.413 20.0001 26.413C15.9256 26.413 12.611 23.0995 12.611 19.0271ZM13.4889 19.0271C13.4889 22.6159 16.4097 25.5353 20.0001 25.5353C23.5905 25.5353 26.5112 22.6159 26.5112 19.0271C26.5112 15.4384 23.5905 12.5186 20.0001 12.5186C16.4097 12.5186 13.4889 15.4384 13.4889 19.0271Z" fill="#FFCC66" stroke="#FFCC66" stroke-width="0.25"/>
<path d="M14.8752 19.0271C14.8752 16.2025 17.1743 13.9043 19.9999 13.9043C22.8258 13.9043 25.125 16.2025 25.125 19.0271C25.125 21.8517 22.8258 24.1496 19.9999 24.1496C17.174 24.1496 14.8752 21.8517 14.8752 19.0271ZM15.7532 19.0271C15.7532 21.3679 17.6581 23.272 19.9999 23.272C22.3417 23.272 24.247 21.3679 24.247 19.0271C24.247 16.6861 22.3417 14.7819 19.9999 14.7819C17.6581 14.7819 15.7532 16.6861 15.7532 19.0271Z" fill="#FFCC66" stroke="#FFCC66" stroke-width="0.25"/>
</svg>
